<svg width="382" height="232" viewBox="0 0 382 232" fill="none" xmlns="http://www.w3.org/2000/svg">
<path d="M98.0665 111.105C95.8149 117.291 90.5899 120.507 85.7745 116.445C81.0473 112.458 79.7919 104.589 79.7418 98.1262C79.6263 83.2455 98.9869 86.2037 105.71 88.6507C114.504 91.8514 119.735 95.0387 122.539 106.062C125.108 116.161 115.264 126.72 108.186 132.734C100.927 138.902 88.5785 140.459 80.773 137.618C69.7508 133.606 63.1829 120.573 56.3372 111.059C51.5402 104.391 61.9023 85.4295 64.5722 78.0941C67.017 71.3771 77.0806 66.4932 82.5301 63.8103C91.5225 59.3833 99.1032 61.5705 107.938 60.7203C122.747 59.2954 129.452 69.0151 138.102 79.6203C140.948 83.1101 146.558 88.5451 146.601 94.0702C146.651 100.533 145.691 107.109 145.194 113.607C144.762 119.248 141.116 125.22 140.982 130.51C140.563 147.024 122.44 161.197 110.089 165.954C96.8667 171.046 84.6389 170.04 72.5241 166.8C56.1787 162.429 42.5385 154.205 32.1601 140.842V140.842C25.4726 132.232 22.3968 119.267 20.919 108.465C19.6959 99.5239 18.8921 90.4614 21.7486 82.3461C24.9286 73.3121 27.0801 62.3658 34.3979 56.316C38.5477 52.8852 42.056 48.1887 46.4312 45.0633C51.6733 41.3187 57.3399 39.206 63.0345 37.0862C73.4352 33.2146 83.5042 27.8243 94.1947 25.785C99.2612 24.8185 108.645 22.8429 113.237 24.5142C122.003 27.7047 133.156 28.0711 141.07 33.6631C146.968 37.8303 152.199 42.8477 158.235 46.9207C164.287 51.0045 172.949 60.6222 175.68 68.1316C178.567 76.069 177.752 85.2375 177.791 93.9959C177.813 98.8548 178.098 104.706 176.882 109.578C173.18 124.41 166.477 138.166 161.404 152.104" stroke="url(#paint0_linear_320_7)" stroke-width="15" stroke-linecap="round"/>
<path d="M162.694 158.752C160.616 158.752 158.812 158.014 157.282 156.538C155.806 155.007 155.068 153.203 155.068 151.126C155.068 149.049 155.806 147.272 157.282 145.796C158.812 144.265 160.616 143.5 162.694 143.5C164.771 143.5 166.548 144.265 168.024 145.796C169.554 147.272 170.32 149.049 170.32 151.126C170.32 153.203 169.554 155.007 168.024 156.538C166.548 158.014 164.771 158.752 162.694 158.752ZM154.576 216.07C152.99 216.07 151.35 215.769 149.656 215.168C148.016 214.621 146.376 213.692 144.736 212.38L147.196 208.198C148.016 208.745 148.945 209.155 149.984 209.428C151.077 209.756 151.979 209.92 152.69 209.92C154.767 209.92 156.243 209.264 157.118 207.952C158.047 206.695 158.512 204.945 158.512 202.704C158.512 202.54 158.484 202.267 158.43 201.884C158.43 201.501 158.375 200.709 158.266 199.506C158.156 198.303 157.965 196.417 157.692 193.848C157.418 191.224 157.036 187.643 156.544 183.106C156.106 178.569 155.505 172.747 154.74 165.64L172.288 163.016L167.04 205.41C166.548 209.401 165.154 212.161 162.858 213.692C160.562 215.277 157.801 216.07 154.576 216.07ZM189.058 206.886C188.73 206.886 188.374 206.886 187.992 206.886C187.664 206.886 187.336 206.859 187.008 206.804C185.149 205.547 183.646 203.688 182.498 201.228C181.404 198.713 180.858 196.117 180.858 193.438C180.858 191.197 181.377 189.338 182.416 187.862C183.454 186.386 185.313 185.293 187.992 184.582C190.725 183.817 194.552 183.434 199.472 183.434C200.674 183.434 201.959 183.489 203.326 183.598C204.692 183.653 206.141 183.789 207.672 184.008L207.508 182.204C207.289 179.963 206.223 178.213 204.31 176.956C202.451 175.699 200.237 175.07 197.668 175.07C196.246 175.07 194.743 175.289 193.158 175.726C191.627 176.163 190.096 176.847 188.566 177.776L184.958 165.886C186.762 165.121 189.058 164.465 191.846 163.918C194.688 163.317 197.613 163.016 200.62 163.016C204.61 163.016 208.082 163.59 211.034 164.738C214.04 165.886 216.364 167.69 218.004 170.15C219.698 172.555 220.546 175.753 220.546 179.744C220.546 180.236 220.518 180.81 220.464 181.466C220.464 182.122 220.436 182.587 220.382 182.86L218.086 205.492L209.968 206.23L208.738 194.34H208.082C206.278 198.167 203.736 201.228 200.456 203.524C197.23 205.765 193.431 206.886 189.058 206.886ZM195.208 197.702C196.41 197.483 197.832 197.101 199.472 196.554C201.166 195.953 202.779 194.969 204.31 193.602C205.895 192.181 207.125 190.131 208 187.452C207.289 187.452 206.578 187.452 205.868 187.452C205.157 187.397 204.419 187.37 203.654 187.37C201.959 187.37 200.428 187.397 199.062 187.452C197.695 187.507 196.274 187.671 194.798 187.944C194.579 188.436 194.333 189.037 194.06 189.748C193.786 190.459 193.65 191.361 193.65 192.454C193.65 193.383 193.814 194.395 194.142 195.488C194.47 196.527 194.825 197.265 195.208 197.702ZM235.476 206.23L231.294 148.994L248.842 146.288L243.594 205.492L235.476 206.23ZM279.47 206.968C275.206 206.968 271.434 206.585 268.154 205.82C264.874 205.055 262.141 203.825 259.954 202.13C259.462 199.943 259.107 197.975 258.888 196.226C258.724 194.422 258.642 192.727 258.642 191.142C258.642 186.277 259.38 181.821 260.856 177.776C262.387 173.731 264.328 170.259 266.678 167.362C269.029 164.41 271.462 162.223 273.976 160.802C276.218 161.677 278.486 162.743 280.782 164C283.133 165.203 285.292 166.624 287.26 168.264C289.228 169.904 290.814 171.763 292.016 173.84C293.219 175.863 293.82 178.104 293.82 180.564C293.82 183.133 293.356 185.293 292.426 187.042C291.552 188.737 289.939 190.021 287.588 190.896C285.238 191.771 281.848 192.208 277.42 192.208C275.562 192.208 273.758 192.126 272.008 191.962C270.314 191.798 268.838 191.579 267.58 191.306C266.542 193.875 266.022 196.554 266.022 199.342C267.28 199.506 268.646 199.643 270.122 199.752C271.598 199.807 273.02 199.834 274.386 199.834C276.956 199.834 279.58 199.643 282.258 199.26C284.992 198.823 287.725 198.112 290.458 197.128L292.918 205.082C290.732 205.793 288.49 206.285 286.194 206.558C283.898 206.831 281.657 206.968 279.47 206.968ZM272.664 187.534C274.742 187.534 276.819 187.425 278.896 187.206C281.028 186.987 282.887 186.714 284.472 186.386C284.636 185.293 284.718 184.254 284.718 183.27C284.718 181.302 284.445 179.553 283.898 178.022C283.406 176.437 282.778 175.043 282.012 173.84C278.951 175.863 276.409 177.995 274.386 180.236C272.418 182.477 270.696 184.883 269.22 187.452C269.767 187.507 270.341 187.534 270.942 187.534C271.544 187.534 272.118 187.534 272.664 187.534ZM325.897 206.968C323.383 206.968 320.567 206.64 317.451 205.984C314.335 205.383 311.165 204.289 307.939 202.704L304.085 148.994L321.633 146.288L318.681 179.17H319.419C321.551 174.031 324.093 169.904 327.045 166.788C329.997 163.672 333.141 162.114 336.475 162.114C337.459 162.114 338.443 162.278 339.427 162.606C340.739 164.191 341.887 166.323 342.871 169.002C343.91 171.681 344.703 174.66 345.249 177.94C345.796 181.22 346.069 184.582 346.069 188.026C346.069 192.181 345.495 195.679 344.347 198.522C343.254 201.31 341.231 203.415 338.279 204.836C335.382 206.257 331.255 206.968 325.897 206.968ZM321.387 201.72C323.246 201.72 324.913 201.665 326.389 201.556C327.865 201.392 329.396 201.119 330.981 200.736C331.255 199.26 331.528 197.483 331.801 195.406C332.075 193.329 332.211 190.623 332.211 187.288C332.211 185.429 332.129 183.461 331.965 181.384C331.801 179.307 331.583 177.393 331.309 175.644C331.091 173.895 330.845 172.637 330.571 171.872C329.587 172.255 328.467 172.938 327.209 173.922C325.952 174.851 324.667 176.355 323.355 178.432C322.043 180.509 320.786 183.407 319.583 187.124C318.435 190.841 317.479 195.625 316.713 201.474C318.189 201.638 319.747 201.72 321.387 201.72ZM366.572 158.752C364.495 158.752 362.691 158.014 361.16 156.538C359.684 155.007 358.946 153.203 358.946 151.126C358.946 149.049 359.684 147.272 361.16 145.796C362.691 144.265 364.495 143.5 366.572 143.5C368.65 143.5 370.426 144.265 371.902 145.796C373.433 147.272 374.198 149.049 374.198 151.126C374.198 153.203 373.433 155.007 371.902 156.538C370.426 158.014 368.65 158.752 366.572 158.752ZM362.8 206.23L358.618 165.64L376.166 162.934L370.918 205.492L362.8 206.23Z" fill="url(#paint1_linear_320_7)"/>
<defs>
<linearGradient id="paint0_linear_320_7" x1="380" y1="201" x2="14.9995" y2="15" gradientUnits="userSpaceOnUse">
<stop stop-color="#FF2E00"/>
<stop offset="1" stop-color="#FFB800"/>
</linearGradient>
<linearGradient id="paint1_linear_320_7" x1="389" y1="213" x2="63.0012" y2="-46.0044" gradientUnits="userSpaceOnUse">
<stop stop-color="#FF2E00"/>
<stop offset="1" stop-color="#FFB800"/>
</linearGradient>
</defs>
</svg>
