<svg width="215" height="144" viewBox="0 0 215 144" fill="none" xmlns="http://www.w3.org/2000/svg">
<path d="M28.3047 40.0039C28.3047 41.4883 27.7773 42.7578 26.7227 43.8125C25.707 44.8281 24.457 45.3359 22.9727 45.3359C21.4883 45.3359 20.2188 44.8281 19.1641 43.8125C18.1484 42.7578 17.6406 41.4883 17.6406 40.0039C17.6406 39.2617 17.7773 38.5781 18.0508 37.9531C18.3242 37.2891 18.6953 36.7227 19.1641 36.2539C19.6719 35.7461 20.2383 35.3555 20.8633 35.082C21.5273 34.8086 22.2305 34.6719 22.9727 34.6719C23.7148 34.6719 24.3984 34.8086 25.0234 35.082C25.6875 35.3555 26.2539 35.7461 26.7227 36.2539C27.2305 36.7227 27.6211 37.2891 27.8945 37.9531C28.168 38.5781 28.3047 39.2617 28.3047 40.0039ZM22.6797 88.0508C24.125 86.4883 25.6094 84.8477 27.1328 83.1289C28.6562 81.3711 30.1211 79.6328 31.5273 77.9141C32.9336 76.1562 34.2227 74.4375 35.3945 72.7578C36.5664 71.0391 37.4844 69.418 38.1484 67.8945C38.5 67.0352 39.1641 66.6055 40.1406 66.6055C40.8047 66.6055 41.332 66.8398 41.7227 67.3086C42.1523 67.7383 42.3672 68.2266 42.3672 68.7734C42.3672 69.0859 42.3086 69.3789 42.1914 69.6523C41.293 71.6836 40.0625 73.793 38.5 75.9805C36.9375 78.168 35.2383 80.3555 33.4023 82.543C31.6055 84.6914 29.75 86.7812 27.8359 88.8125C25.9609 90.8828 24.2422 92.7969 22.6797 94.5547C22.7188 97.6797 22.7578 100.746 22.7969 103.754C22.875 106.762 22.9141 109.613 22.9141 112.309C22.9141 123.051 21.8594 131.02 19.75 136.215C17.6406 141.41 14.4961 144.008 10.3164 144.008C8.87109 144.008 7.54297 143.695 6.33203 143.07C5.12109 142.445 4.08594 141.547 3.22656 140.375C2.36719 139.203 1.70312 137.758 1.23438 136.039C0.726562 134.32 0.472656 132.367 0.472656 130.18C0.472656 127.758 0.804688 125.102 1.46875 122.211C2.09375 119.359 3.12891 116.332 4.57422 113.129C5.98047 109.926 7.81641 106.605 10.082 103.168C12.3477 99.7695 15.082 96.3125 18.2852 92.7969C18.2852 89.4375 18.3047 86.0977 18.3438 82.7773C18.3828 79.418 18.4414 76.2148 18.5195 73.168C18.6367 70.082 18.7734 67.2109 18.9297 64.5547C19.125 61.8594 19.3398 59.4766 19.5742 57.4062C19.6523 56.8203 19.8867 56.3516 20.2773 56C20.707 55.6484 21.2148 55.4727 21.8008 55.4727C22.3867 55.4727 22.8945 55.6875 23.3242 56.1172C23.7539 56.5469 23.9688 57.0742 23.9688 57.6992C23.9688 57.9336 23.8906 58.6953 23.7344 59.9844C23.6172 61.2734 23.4805 63.168 23.3242 65.668C23.168 68.168 23.0117 71.2734 22.8555 74.9844C22.7383 78.6562 22.6797 83.0117 22.6797 88.0508ZM24.9648 40.0039C24.9648 39.457 24.7695 38.9883 24.3789 38.5977C23.9883 38.168 23.5195 37.9531 22.9727 37.9531C22.4258 37.9531 21.9375 38.168 21.5078 38.5977C21.1172 38.9883 20.9219 39.457 20.9219 40.0039C20.9219 40.5508 21.1172 41.0195 21.5078 41.4102C21.9375 41.8008 22.4258 41.9961 22.9727 41.9961C23.5195 41.9961 23.9883 41.8008 24.3789 41.4102C24.7695 41.0195 24.9648 40.5508 24.9648 40.0039ZM18.5195 111.957C18.5195 109.965 18.5 107.973 18.4609 105.98C18.4219 103.988 18.3828 101.82 18.3438 99.4766C15.9219 102.406 13.8711 105.297 12.1914 108.148C10.4727 111 9.06641 113.734 7.97266 116.352C6.87891 118.969 6.09766 121.449 5.62891 123.793C5.12109 126.137 4.86719 128.266 4.86719 130.18C4.86719 131.273 4.94531 132.367 5.10156 133.461C5.25781 134.594 5.55078 135.609 5.98047 136.508C6.37109 137.445 6.91797 138.188 7.62109 138.734C8.32422 139.32 9.22266 139.613 10.3164 139.613C10.7461 139.613 11.2539 139.516 11.8398 139.32C12.4258 139.125 13.0312 138.695 13.6562 138.031C14.2422 137.406 14.8281 136.488 15.4141 135.277C16 134.066 16.5273 132.426 16.9961 130.355C17.4648 128.324 17.8359 125.805 18.1094 122.797C18.3828 119.789 18.5195 116.176 18.5195 111.957ZM83.4414 69.6523C83.2852 69.9648 82.9531 70.6289 82.4453 71.6445C81.9766 72.6211 81.3516 73.7539 80.5703 75.043C79.8281 76.332 78.9492 77.6797 77.9336 79.0859C76.918 80.4922 75.7852 81.7812 74.5352 82.9531C73.2852 84.125 71.9375 85.1016 70.4922 85.8828C69.0469 86.625 67.5234 86.9961 65.9219 86.9961C63.6562 86.9961 61.7422 86.2734 60.1797 84.8281C58.6562 83.3828 57.543 81.5664 56.8398 79.3789C55.5117 81.6055 53.9297 83.3828 52.0938 84.7109C50.2578 86 48.4219 86.6445 46.5859 86.6445C45.1406 86.6445 43.832 86.3906 42.6602 85.8828C41.4883 85.3359 40.4922 84.5938 39.6719 83.6562C38.8516 82.6797 38.207 81.5469 37.7383 80.2578C37.3086 78.9688 37.0938 77.5625 37.0938 76.0391C37.0938 72.9922 37.6016 70.3164 38.6172 68.0117C39.6719 65.668 41 63.7148 42.6016 62.1523C44.2031 60.5898 45.9609 59.418 47.875 58.6367C49.8281 57.8555 51.7031 57.4648 53.5 57.4648C54.7109 57.4648 55.8242 57.6406 56.8398 57.9922C57.8555 58.3047 58.7148 58.6562 59.418 59.0469C60.1602 59.4375 60.7266 59.8086 61.1172 60.1602C61.5078 60.4727 61.7227 60.6484 61.7617 60.6875C62.1914 61.1953 62.4062 61.7227 62.4062 62.2695C62.4062 62.8555 62.1914 63.3828 61.7617 63.8516C61.332 64.2812 60.8242 64.4961 60.2383 64.4961C59.6133 64.4961 59.0859 64.2812 58.6562 63.8516C58.5781 63.7734 58.4023 63.6367 58.1289 63.4414C57.8555 63.207 57.4844 62.9727 57.0156 62.7383C56.5469 62.5039 55.9805 62.3086 55.3164 62.1523C54.6914 61.957 53.9688 61.8594 53.1484 61.8594C51.9375 61.8594 50.6484 62.1328 49.2812 62.6797C47.9141 63.2266 46.6641 64.0859 45.5312 65.2578C44.3984 66.3906 43.4414 67.8359 42.6602 69.5938C41.918 71.3125 41.5469 73.3633 41.5469 75.7461C41.5469 76.4883 41.625 77.25 41.7812 78.0312C41.9375 78.7734 42.2109 79.457 42.6016 80.082C42.9922 80.707 43.5195 81.2148 44.1836 81.6055C44.8477 81.9961 45.668 82.1914 46.6445 82.1914C47.3477 82.1914 48.1484 81.957 49.0469 81.4883C49.9844 81.0195 50.8633 80.2969 51.6836 79.3203C52.543 78.3438 53.3047 77.1133 53.9688 75.6289C54.6719 74.1445 55.1602 72.3867 55.4336 70.3555C55.5117 69.8086 55.7656 69.3594 56.1953 69.0078C56.625 68.6172 57.1328 68.4219 57.7188 68.4219C58.2656 68.4219 58.7344 68.6367 59.125 69.0664C59.5547 69.4961 59.7891 69.9844 59.8281 70.5312C59.8672 71.2734 59.9453 72.3281 60.0625 73.6953C60.1797 75.0234 60.4336 76.3516 60.8242 77.6797C61.2539 79.0078 61.8789 80.1602 62.6992 81.1367C63.5195 82.1133 64.6523 82.6016 66.0977 82.6016C67.0352 82.6016 67.9531 82.3477 68.8516 81.8398C69.7891 81.332 70.6875 80.668 71.5469 79.8477C72.4453 78.9883 73.2852 78.0312 74.0664 76.9766C74.8867 75.8828 75.6289 74.7891 76.293 73.6953C76.957 72.6016 77.543 71.5469 78.0508 70.5312C78.5586 69.5156 78.9883 68.6367 79.3398 67.8945C79.5352 67.4648 79.8086 67.1328 80.1602 66.8984C80.5508 66.6641 80.9609 66.5469 81.3906 66.5469C82.0547 66.5469 82.582 66.8008 82.9727 67.3086C83.4023 67.7773 83.6172 68.2852 83.6172 68.832C83.6172 69.1055 83.5586 69.3789 83.4414 69.6523ZM112.738 69.7695C112.309 70.668 111.762 71.7422 111.098 72.9922C110.473 74.2031 109.75 75.4727 108.93 76.8008C108.109 78.1289 107.191 79.457 106.176 80.7852C105.16 82.0742 104.047 83.2461 102.836 84.3008C101.664 85.3164 100.395 86.1367 99.0273 86.7617C97.6992 87.4258 96.2734 87.7578 94.75 87.7578C92.4062 87.7578 90.3945 87.0352 88.7148 85.5898C87.0352 84.1445 85.6094 82.25 84.4375 79.9062C83.2656 77.5625 82.3086 74.9062 81.5664 71.9375C80.8633 68.9297 80.3164 65.8828 79.9258 62.7969C79.5352 59.6719 79.2617 56.6445 79.1055 53.7148C78.9883 50.7852 78.9297 48.1875 78.9297 45.9219C78.9297 42.6406 79.0273 39.2422 79.2227 35.7266C79.457 32.2109 79.8086 28.7734 80.2773 25.4141C80.7461 22.0547 81.332 18.8711 82.0352 15.8633C82.7773 12.8555 83.6367 10.2188 84.6133 7.95312C85.6289 5.6875 86.7812 3.89063 88.0703 2.5625C89.3594 1.23437 90.8242 0.570312 92.4648 0.570312C93.7539 0.570312 94.9062 0.882812 95.9219 1.50781C96.9766 2.09375 97.8555 3.07031 98.5586 4.4375C99.2617 5.80469 99.8086 7.58203 100.199 9.76953C100.59 11.957 100.785 14.6328 100.785 17.7969C100.785 21.7031 100.375 25.7461 99.5547 29.9258C98.7344 34.0664 97.6211 38.2461 96.2148 42.4648C94.8086 46.6836 93.1484 50.9023 91.2344 55.1211C89.3203 59.3008 87.2695 63.3828 85.082 67.3672C86.0586 72.3281 87.3672 76.2344 89.0078 79.0859C90.6484 81.8984 92.6211 83.3047 94.9258 83.3047C96.4883 83.3047 97.9922 82.6992 99.4375 81.4883C100.883 80.2383 102.211 78.7734 103.422 77.0938C104.633 75.4141 105.688 73.7148 106.586 71.9961C107.523 70.2383 108.246 68.832 108.754 67.7773C108.949 67.3867 109.223 67.0938 109.574 66.8984C109.926 66.6641 110.316 66.5469 110.746 66.5469C111.41 66.5469 111.938 66.7812 112.328 67.25C112.758 67.7188 112.973 68.2461 112.973 68.832C112.973 69.0664 112.895 69.3789 112.738 69.7695ZM83.3828 46.2148C83.3828 48.7148 83.4414 51.1172 83.5586 53.4219C83.6758 55.7266 83.832 57.9336 84.0273 60.043C85.668 56.8789 87.2305 53.5195 88.7148 49.9648C90.1992 46.3711 91.5078 42.7578 92.6406 39.125C93.7734 35.4531 94.6719 31.8203 95.3359 28.2266C96.0391 24.5938 96.3906 21.1367 96.3906 17.8555C96.3906 13.2461 96.0195 9.94531 95.2773 7.95312C94.5352 5.96094 93.5391 4.96484 92.2891 4.96484C91.4688 4.96484 90.668 5.53125 89.8867 6.66406C89.1445 7.79687 88.4414 9.33984 87.7773 11.293C87.1133 13.2461 86.5078 15.5508 85.9609 18.207C85.4141 20.8633 84.9453 23.7148 84.5547 26.7617C84.2031 29.8086 83.9102 32.9922 83.6758 36.3125C83.4805 39.6328 83.3828 42.9336 83.3828 46.2148ZM115.844 79.5547C116.664 80.6875 117.719 81.6055 119.008 82.3086C120.297 82.9727 121.879 83.3047 123.754 83.3047C125.668 83.3047 127.406 82.8555 128.969 81.957C130.531 81.0195 131.957 79.8086 133.246 78.3242C134.535 76.8398 135.688 75.1797 136.703 73.3438C137.719 71.5078 138.637 69.6719 139.457 67.8359C139.652 67.4062 139.926 67.0938 140.277 66.8984C140.629 66.6641 141.02 66.5469 141.449 66.5469C142.113 66.5469 142.641 66.7812 143.031 67.25C143.461 67.7188 143.676 68.2266 143.676 68.7734C143.676 68.9688 143.656 69.1445 143.617 69.3008C143.578 69.418 143.52 69.5547 143.441 69.7109C140.746 75.6484 137.797 80.1211 134.594 83.1289C131.43 86.1367 127.836 87.6797 123.812 87.7578C121.234 87.7578 119.008 87.25 117.133 86.2344C115.258 85.2578 113.715 83.9883 112.504 82.4258C111.293 80.8242 110.395 79.0273 109.809 77.0352C109.223 75.043 108.93 73.0508 108.93 71.0586C108.93 69.0664 109.164 67.2305 109.633 65.5508C110.141 63.8711 110.844 62.4062 111.742 61.1562C112.68 59.9062 113.773 58.9297 115.023 58.2266C116.312 57.5234 117.719 57.1719 119.242 57.1719C120.141 57.1719 121.02 57.3672 121.879 57.7578C122.777 58.1094 123.578 58.6367 124.281 59.3398C124.984 60.0039 125.551 60.8242 125.98 61.8008C126.41 62.7773 126.625 63.8906 126.625 65.1406C126.625 66.7422 126.352 68.2461 125.805 69.6523C125.258 71.0586 124.496 72.3672 123.52 73.5781C122.582 74.7891 121.449 75.9023 120.121 76.918C118.793 77.9336 117.367 78.8125 115.844 79.5547ZM114.086 75.7461C115.297 75.2383 116.391 74.5938 117.367 73.8125C118.383 73.0312 119.242 72.1719 119.945 71.2344C120.648 70.2969 121.195 69.3203 121.586 68.3047C121.977 67.25 122.172 66.1953 122.172 65.1406C122.172 63.9688 121.879 63.0898 121.293 62.5039C120.707 61.8789 120.023 61.5664 119.242 61.5664C118.188 61.5664 117.289 61.8594 116.547 62.4453C115.805 63.0312 115.199 63.793 114.73 64.7305C114.262 65.668 113.91 66.7227 113.676 67.8945C113.48 69.0273 113.383 70.1602 113.383 71.293C113.383 71.9961 113.441 72.7383 113.559 73.5195C113.715 74.3008 113.891 75.043 114.086 75.7461ZM188.91 69.7695C188.793 70.0039 188.539 70.4922 188.148 71.2344C187.758 71.9375 187.25 72.7773 186.625 73.7539C186 74.6914 185.258 75.707 184.398 76.8008C183.539 77.8555 182.602 78.832 181.586 79.7305C180.57 80.6289 179.477 81.3711 178.305 81.957C177.133 82.543 175.922 82.8359 174.672 82.8359C172.641 82.8359 170.922 82.4844 169.516 81.7812C168.109 81.0391 166.957 80.2188 166.059 79.3203C165.434 80.6875 164.672 81.9375 163.773 83.0703C162.875 84.2031 161.879 85.1797 160.785 86C159.691 86.8594 158.52 87.5234 157.27 87.9922C156.059 88.4609 154.809 88.6953 153.52 88.6953C151.137 88.6953 149.105 87.9922 147.426 86.5859C145.746 85.1797 144.34 83.3047 143.207 80.9609C142.113 78.5781 141.254 75.8242 140.629 72.6992C140.004 69.5742 139.516 66.293 139.164 62.8555C138.852 59.418 138.656 55.9414 138.578 52.4258C138.5 48.9102 138.461 45.5703 138.461 42.4062C138.461 36.3516 138.637 31.1172 138.988 26.7031C139.34 22.25 139.809 18.4805 140.395 15.3945C141.02 12.2695 141.723 9.75 142.504 7.83594C143.324 5.88281 144.184 4.37891 145.082 3.32422C145.98 2.23047 146.898 1.48828 147.836 1.09766C148.773 0.707031 149.691 0.511719 150.59 0.511719C152.035 0.511719 153.305 0.941406 154.398 1.80078C155.531 2.66016 156.469 3.87109 157.211 5.43359C157.992 6.95703 158.578 8.8125 158.969 11C159.359 13.1875 159.555 15.5898 159.555 18.207C159.555 22.3867 159.105 26.7031 158.207 31.1562C157.309 35.6094 156.137 40.0625 154.691 44.5156C153.285 48.9297 151.703 53.2852 149.945 57.582C148.188 61.8398 146.449 65.8828 144.73 69.7109C144.965 71.625 145.316 73.4609 145.785 75.2188C146.254 76.9375 146.859 78.4805 147.602 79.8477C148.344 81.1758 149.223 82.25 150.238 83.0703C151.254 83.8516 152.426 84.2422 153.754 84.2422C155.082 84.2422 156.332 83.8711 157.504 83.1289C158.676 82.3477 159.691 81.3516 160.551 80.1406C161.41 78.8906 162.074 77.4844 162.543 75.9219C163.051 74.3594 163.305 72.7578 163.305 71.1172C163.305 70.0234 163.188 68.9297 162.953 67.8359C162.758 66.7031 162.426 65.707 161.957 64.8477C161.527 63.9492 160.98 63.2266 160.316 62.6797C159.652 62.1328 158.852 61.8594 157.914 61.8594C157.211 61.8594 156.664 62.0156 156.273 62.3281C155.883 62.6016 155.59 62.9336 155.395 63.3242C155.199 63.6758 155.082 64.0273 155.043 64.3789C155.004 64.7305 154.984 64.9648 154.984 65.082C154.984 65.6289 155.102 66.1758 155.336 66.7227C155.57 67.2695 156.02 67.7578 156.684 68.1875C157.348 68.6562 157.68 69.3008 157.68 70.1211C157.68 70.7852 157.445 71.3125 156.977 71.7031C156.547 72.0938 156.059 72.2891 155.512 72.2891C154.73 72.2891 154.027 72.0547 153.402 71.5859C152.816 71.1172 152.309 70.5312 151.879 69.8281C151.449 69.0859 151.117 68.3047 150.883 67.4844C150.648 66.6641 150.531 65.9023 150.531 65.1992C150.531 64.0664 150.727 63.0312 151.117 62.0938C151.508 61.1172 152.035 60.2969 152.699 59.6328C153.402 58.9297 154.184 58.4023 155.043 58.0508C155.941 57.6602 156.879 57.4648 157.855 57.4648C159.535 57.4648 160.98 57.8555 162.191 58.6367C163.441 59.418 164.477 60.4531 165.297 61.7422C166.117 63.0312 166.723 64.4961 167.113 66.1367C167.504 67.7773 167.699 69.4375 167.699 71.1172C167.699 72.0938 167.641 73.0508 167.523 73.9883C167.68 74.3008 167.934 74.7109 168.285 75.2188C168.637 75.7266 169.105 76.2148 169.691 76.6836C170.277 77.1523 170.98 77.5625 171.801 77.9141C172.621 78.2656 173.578 78.4414 174.672 78.4414C175.609 78.4414 176.566 78.0898 177.543 77.3867C178.559 76.6445 179.516 75.7461 180.414 74.6914C181.352 73.5977 182.211 72.4453 182.992 71.2344C183.773 69.9844 184.418 68.832 184.926 67.7773C185.121 67.3867 185.395 67.0938 185.746 66.8984C186.098 66.6641 186.488 66.5469 186.918 66.5469C187.582 66.5469 188.109 66.7812 188.5 67.25C188.93 67.7188 189.145 68.2461 189.145 68.832C189.145 69.0664 189.066 69.3789 188.91 69.7695ZM143.617 62.2109C144.945 58.9297 146.293 55.4922 147.66 51.8984C149.027 48.2656 150.258 44.5742 151.352 40.8242C152.445 37.0742 153.344 33.2852 154.047 29.457C154.75 25.6289 155.102 21.8594 155.102 18.1484C155.102 16.7422 155.023 15.2773 154.867 13.7539C154.75 12.1914 154.516 10.7656 154.164 9.47656C153.812 8.1875 153.324 7.11328 152.699 6.25391C152.113 5.39453 151.352 4.96484 150.414 4.96484C150.102 4.96484 149.691 5.17969 149.184 5.60938C148.715 6 148.207 6.72266 147.66 7.77734C147.113 8.79297 146.566 10.2188 146.02 12.0547C145.473 13.8906 144.965 16.2344 144.496 19.0859C144.066 21.8984 143.695 25.2969 143.383 29.2812C143.109 33.2656 142.973 37.9531 142.973 43.3438C142.973 45.1406 142.992 46.9766 143.031 48.8516C143.07 50.6875 143.109 52.4453 143.148 54.125C143.227 55.8047 143.305 57.3477 143.383 58.7539C143.461 60.1602 143.539 61.3125 143.617 62.2109ZM194.535 40.0039C194.535 41.4883 194.008 42.7578 192.953 43.8125C191.938 44.8281 190.688 45.3359 189.203 45.3359C187.719 45.3359 186.449 44.8281 185.395 43.8125C184.379 42.7578 183.871 41.4883 183.871 40.0039C183.871 39.2617 184.008 38.5781 184.281 37.9531C184.555 37.2891 184.926 36.7227 185.395 36.2539C185.902 35.7461 186.469 35.3555 187.094 35.082C187.758 34.8086 188.461 34.6719 189.203 34.6719C189.945 34.6719 190.629 34.8086 191.254 35.082C191.918 35.3555 192.484 35.7461 192.953 36.2539C193.461 36.7227 193.852 37.2891 194.125 37.9531C194.398 38.5781 194.535 39.2617 194.535 40.0039ZM185.043 74.3398C185.043 68.7148 185.395 63.1094 186.098 57.5234C186.176 56.9766 186.41 56.5078 186.801 56.1172C187.23 55.6875 187.777 55.4727 188.441 55.4727C189.027 55.4727 189.516 55.707 189.906 56.1758C190.297 56.6055 190.492 57.1133 190.492 57.6992C190.492 57.9336 190.434 58.6367 190.316 59.8086C190.238 60.9805 190.121 62.3867 189.965 64.0273C189.848 65.6289 189.73 67.3477 189.613 69.1836C189.535 70.9805 189.496 72.6406 189.496 74.1641C189.496 76.2344 189.691 77.9141 190.082 79.2031C190.512 80.4531 191.039 81.4297 191.664 82.1328C192.328 82.8359 193.012 83.3047 193.715 83.5391C194.457 83.7734 195.16 83.8906 195.824 83.8906C196.918 83.8906 198.051 83.5 199.223 82.7188C200.395 81.9375 201.586 80.8438 202.797 79.4375C204.047 78.0312 205.297 76.3516 206.547 74.3984C207.797 72.4062 209.027 70.1992 210.238 67.7773C210.434 67.3867 210.707 67.0938 211.059 66.8984C211.41 66.6641 211.801 66.5469 212.23 66.5469C212.855 66.5469 213.363 66.7812 213.754 67.25C214.184 67.7188 214.398 68.2266 214.398 68.7734C214.398 69.1641 214.32 69.4961 214.164 69.7695C213.695 70.668 213.109 71.7617 212.406 73.0508C211.703 74.3398 210.902 75.668 210.004 77.0352C209.105 78.4023 208.109 79.7695 207.016 81.1367C205.961 82.4648 204.828 83.6758 203.617 84.7695C202.406 85.8242 201.137 86.6836 199.809 87.3477C198.48 88.0117 197.133 88.3438 195.766 88.3438C194.008 88.3438 192.465 87.9727 191.137 87.2305C189.809 86.4883 188.676 85.4922 187.738 84.2422C186.84 82.9922 186.156 81.5273 185.688 79.8477C185.258 78.1289 185.043 76.293 185.043 74.3398ZM191.254 40.0039C191.254 39.457 191.039 38.9883 190.609 38.5977C190.219 38.168 189.75 37.9531 189.203 37.9531C188.656 37.9531 188.188 38.168 187.797 38.5977C187.406 38.9883 187.211 39.457 187.211 40.0039C187.211 40.5508 187.406 41.0195 187.797 41.4102C188.188 41.8008 188.656 41.9961 189.203 41.9961C189.75 41.9961 190.219 41.8008 190.609 41.4102C191.039 41.0195 191.254 40.5508 191.254 40.0039Z" fill="url(#paint0_linear_333_2)"/>
<defs>
<linearGradient id="paint0_linear_333_2" x1="-13" y1="69" x2="229" y2="62" gradientUnits="userSpaceOnUse">
<stop stop-color="#FF00E6"/>
<stop offset="1" stop-color="#7000FF"/>
</linearGradient>
</defs>
</svg>
