<svg width="210" height="89" viewBox="0 0 210 89" fill="none" xmlns="http://www.w3.org/2000/svg">
<path d="M21.908 2.64799C23.1653 1.336 24.696 0.679996 26.5 0.679996C28.304 0.679996 29.8347 1.336 31.092 2.64799C32.404 3.90533 33.06 5.436 33.06 7.24C33.06 9.044 32.404 10.5747 31.092 11.832C29.8347 13.0893 28.304 13.718 26.5 13.718C24.696 13.718 23.1653 13.0893 21.908 11.832C20.6507 10.5747 20.022 9.044 20.022 7.24C20.022 5.436 20.6507 3.90533 21.908 2.64799ZM10.51 88.092C7.94067 88.092 5.672 87.272 3.704 85.632C1.68133 84.0467 0.67 81.286 0.67 77.35C0.67 69.478 5.426 62.4533 14.938 56.276C15.3207 52.996 16.4687 43.1287 18.382 26.674C20.022 24.6513 22.5913 23.64 26.09 23.64C28.058 23.64 29.3973 23.8313 30.108 24.214L23.712 73.824C23.1653 78.58 21.826 82.1333 19.694 84.484C17.6167 86.8893 14.5553 88.092 10.51 88.092ZM5.918 76.53C5.918 78.006 6.21867 79.1267 6.82 79.892C7.42133 80.712 8.18667 81.122 9.116 81.122C10.8653 81.122 11.986 79.318 12.478 75.71L14.2 62.59C8.67867 66.9633 5.918 71.61 5.918 76.53ZM70.1804 63.41C65.151 63.41 61.8164 61.6607 60.1764 58.162C57.3337 61.7153 53.671 63.492 49.1884 63.492C44.7604 63.492 41.0157 61.9887 37.9544 58.982C34.9477 55.9753 33.4444 52.012 33.4444 47.092C33.4444 39.9307 35.549 34.218 39.7584 29.954C43.9677 25.69 49.2977 23.558 55.7484 23.558C55.9124 23.558 56.0764 23.558 56.2404 23.558C58.9737 23.558 61.4884 24.0227 63.7844 24.952C65.2604 24.0227 67.037 23.558 69.1144 23.558C71.2464 23.558 72.777 23.8313 73.7064 24.378C73.2144 28.4233 72.695 32.414 72.1484 36.35C71.6017 40.2313 71.219 42.992 71.0004 44.632C70.5084 48.3493 70.2624 51.028 70.2624 52.668C70.2624 54.8547 71.137 55.948 72.8864 55.948C74.253 55.948 75.7017 55.046 77.2324 53.242C78.763 51.3833 80.1024 48.486 81.2504 44.55C82.8357 45.9713 83.929 47.5567 84.5304 49.306C82.945 54.4993 80.813 58.162 78.1344 60.294C75.4557 62.3713 72.8044 63.41 70.1804 63.41ZM56.9784 29.954C53.4797 29.954 50.6917 31.2933 48.6144 33.972C46.5917 36.596 45.389 40.532 45.0064 45.78C44.9517 46.272 44.9244 46.7367 44.9244 47.174C44.9244 49.8527 45.553 51.9847 46.8104 53.57C48.1224 55.1553 49.7897 55.948 51.8124 55.948C55.2564 55.948 57.853 53.5153 59.6024 48.65L61.5704 30.938C59.985 30.282 58.4544 29.954 56.9784 29.954ZM89.6022 63.574C86.2675 63.574 83.6435 62.6447 81.7302 60.786C79.8169 58.8727 78.8602 56.276 78.8602 52.996C78.8602 52.1213 80.3362 39.138 83.2882 14.046C84.0535 7.59533 86.1035 3.52266 89.4382 1.828C90.9689 1.008 92.8002 0.597997 94.9322 0.597997C102.148 0.597997 105.756 3.93266 105.756 10.602C105.756 11.1487 105.729 11.7227 105.674 12.324C105.128 19.6493 100.536 27.1113 91.8982 34.71C91.6249 37.3887 91.3242 39.9853 90.9962 42.5C90.3402 48.1307 90.0122 51.2467 90.0122 51.848C90.0122 54.6907 91.2422 56.112 93.7022 56.112C96.3809 56.112 98.8682 54.5813 101.164 51.52C103.515 48.404 105.319 44.4407 106.576 39.63C107.068 39.794 107.752 40.2587 108.626 41.024C109.501 41.7347 110.102 42.3633 110.43 42.91C109.556 47.4473 107.588 51.7933 104.526 55.948C102.996 58.08 101.055 59.8293 98.7042 61.196C96.0255 62.7813 92.9915 63.574 89.6022 63.574ZM92.8002 26.51C97.8295 20.9887 100.344 16.0413 100.344 11.668C100.344 9.044 99.3602 7.732 97.3922 7.732C96.1349 7.84133 95.2875 8.66133 94.8502 10.192C94.4675 11.7227 94.0849 14.21 93.7022 17.654C93.3742 21.098 93.1555 23.23 93.0462 24.05L92.8002 26.51ZM118.931 44.632C122.32 43.9213 124.835 42.5547 126.475 40.532C128.169 38.5093 129.017 36.5687 129.017 34.71C129.017 32.7967 128.497 31.512 127.459 30.856C126.475 30.1453 125.381 29.79 124.179 29.79C121.609 29.79 119.341 31.2387 117.373 34.136C115.459 36.9787 114.503 40.3953 114.503 44.386C114.503 48.322 115.432 51.274 117.291 53.242C119.204 55.1553 121.555 56.112 124.343 56.112C128.443 56.112 132.379 54.6907 136.151 51.848C139.923 49.0053 142.984 45.288 145.335 40.696C146.537 41.844 147.631 43.2653 148.615 44.96C146.811 49.06 143.613 53.078 139.021 57.014C136.725 58.9273 133.991 60.4853 130.821 61.688C127.705 62.8907 124.479 63.492 121.145 63.492C115.678 63.492 111.359 61.8247 108.189 58.49C104.799 54.882 103.105 50.2627 103.105 44.632C103.105 39.0013 105.209 34.0813 109.419 29.872C113.683 25.6627 118.767 23.558 124.671 23.558C128.88 23.558 132.297 24.4873 134.921 26.346C137.545 28.15 138.884 30.61 138.939 33.726C138.939 37.9353 137.244 41.352 133.855 43.976C130.52 46.6 125.928 48.4313 120.079 49.47L118.931 44.632ZM165.902 23.476C169.838 23.476 173.227 25.0887 176.07 28.314C178.913 31.5393 180.334 35.3113 180.334 39.63C180.334 40.2313 180.307 40.86 180.252 41.516C179.651 48.6773 177.245 54.144 173.036 57.916C168.827 61.6333 163.333 63.492 156.554 63.492C153.821 63.3827 151.443 62.8907 149.42 62.016C147.397 61.1413 145.894 60.048 144.91 58.736C143.051 56.3307 142.122 54.1987 142.122 52.34C142.122 50.4267 142.395 47.3653 142.942 43.156C144.09 34.5187 145.73 20.5513 147.862 1.254C149.01 0.816664 150.541 0.597997 152.454 0.597997C156.827 0.597997 159.014 1.85533 159.014 4.37L156.226 26.182C158.795 24.378 162.021 23.476 165.902 23.476ZM153.192 51.766C153.192 53.0233 153.657 54.0893 154.586 54.964C155.57 55.784 156.909 56.194 158.604 56.194C161.392 56.194 163.688 54.9093 165.492 52.34C167.679 49.224 168.772 45.1787 168.772 40.204C168.772 37.7987 168.225 35.6667 167.132 33.808C166.039 31.9493 164.344 31.02 162.048 31.02C158.932 31.02 156.554 32.8787 154.914 36.596L154.258 41.516C153.547 47.0373 153.192 50.454 153.192 51.766ZM190.069 2.64799C191.326 1.336 192.857 0.679996 194.661 0.679996C196.465 0.679996 197.996 1.336 199.253 2.64799C200.565 3.90533 201.221 5.436 201.221 7.24C201.221 9.044 200.565 10.5747 199.253 11.832C197.996 13.0893 196.465 13.718 194.661 13.718C192.857 13.718 191.326 13.0893 190.069 11.832C188.812 10.5747 188.183 9.044 188.183 7.24C188.183 5.436 188.812 3.90533 190.069 2.64799ZM186.707 26.674C187.254 25.69 188.292 24.952 189.823 24.46C191.354 23.9133 192.857 23.64 194.333 23.64C195.864 23.64 197.203 23.8313 198.351 24.214C196.219 40.6687 195.153 48.978 195.153 49.142C194.88 50.2353 194.743 51.1647 194.743 51.93C194.743 52.6407 194.798 53.2693 194.907 53.816C195.126 55.2373 196.11 55.948 197.859 55.948C199.663 55.948 201.303 54.8 202.779 52.504C204.31 50.1533 205.458 47.502 206.223 44.55C206.606 44.7687 207.207 45.4247 208.027 46.518C208.847 47.6113 209.339 48.4313 209.503 48.978C208.41 53.3513 206.551 56.8773 203.927 59.556C201.303 62.2347 198.16 63.574 194.497 63.574C190.834 63.574 188.101 62.672 186.297 60.868C184.548 59.064 183.673 56.7407 183.673 53.898C183.673 53.2967 183.7 52.668 183.755 52.012L186.707 26.674Z" fill="url(#paint0_linear_327_2)"/>
<defs>
<linearGradient id="paint0_linear_327_2" x1="6" y1="7" x2="246" y2="78" gradientUnits="userSpaceOnUse">
<stop stop-color="#FF0000"/>
<stop offset="1" stop-color="#FF00F5"/>
</linearGradient>
</defs>
</svg>
