<svg width="189" height="134" viewBox="0 0 189 134" fill="none" xmlns="http://www.w3.org/2000/svg">
<path d="M14.32 133.24C10.72 133.24 7.6 131.72 4.96 128.68C2.24 125.64 0.879999 120.96 0.879999 114.64C0.879999 113.28 0.96 112.12 1.12 111.16C1.28 110.28 1.52 109.2 1.84 107.92C2.16 106.48 2.8 104.84 3.76 103C4.64 101.16 5.76 99.36 7.12 97.6C8.48 95.92 10 94.52 11.68 93.4C13.36 92.28 15.08 91.72 16.84 91.72C18.68 91.72 20.12 92.44 21.16 93.88C22.28 95.4 23.04 97.08 23.44 98.92C23.92 100.84 24.16 102.44 24.16 103.72C24.16 105.4 23.72 107.36 22.84 109.6C21.96 111.92 20.72 113.92 19.12 115.6C17.52 117.28 15.6 118.16 13.36 118.24C12.72 118.24 12.04 117.84 11.32 117.04C10.6 116.24 10.04 115.28 9.64 114.16C9.16 113.12 8.92 112.24 8.92 111.52C9 110.08 9.4 108.8 10.12 107.68C10.84 106.64 11.6 105.96 12.4 105.64C12.56 105.56 12.72 105.52 12.88 105.52C13.6 105.52 13.96 105.92 13.96 106.72C13.96 107.12 13.76 107.44 13.36 107.68C12.96 107.84 12.48 108.24 11.92 108.88C11.44 109.6 11.16 110.52 11.08 111.64C11.08 112.2 11.32 112.96 11.8 113.92C12.36 114.88 12.96 115.32 13.6 115.24C14.96 115.24 16.2 114.6 17.32 113.32C18.44 112.12 19.36 110.64 20.08 108.88C20.8 107.12 21.16 105.4 21.16 103.72C21.16 103.08 21.04 102.04 20.8 100.6C20.56 99.16 20.12 97.8 19.48 96.52C18.92 95.24 18.12 94.6 17.08 94.6C15 94.6 13.04 95.4 11.2 97C9.36 98.68 7.8 100.6 6.52 102.76C5.24 104.92 4.4 106.84 4 108.52C3.76 109.56 3.64 110.56 3.64 111.52C3.56 112.48 3.52 113.52 3.52 114.64C3.52 118.48 4.48 121.4 6.4 123.4C8.32 125.48 10.52 126.52 13 126.52C15.32 126.52 17.6 125.68 19.84 124C22.08 122.32 23.96 119.72 25.48 116.2C27 112.68 27.76 108.2 27.76 102.76C27.76 99.24 27.56 96.04 27.16 93.16C26.76 90.28 26.24 87.28 25.6 84.16C25.52 83.84 25.32 82.8 25 81.04C24.76 79.28 24.44 77.2 24.04 74.8C23.64 72.4 23.24 70.04 22.84 67.72C22.44 65.32 22.08 63.32 21.76 61.72C21.52 60.04 21.36 59.12 21.28 58.96C21.12 58.32 21 57.68 20.92 57.04C20.92 56.32 20.88 55.6 20.8 54.88L24.16 52.84C24.16 52.92 24.12 53 24.04 53.08C24.04 53.08 24.04 53.16 24.04 53.32C24.04 53.56 24.08 53.84 24.16 54.16C24.32 54.4 24.44 54.64 24.52 54.88C24.52 55.52 24.72 56.2 25.12 56.92C25.6 57.56 25.88 58.2 25.96 58.84C26.84 62.76 27.96 66.8 29.32 70.96C30.76 75.12 31.84 79.04 32.56 82.72C33.28 86.16 33.8 89.44 34.12 92.56C34.52 95.68 34.72 99.12 34.72 102.88C34.72 109.44 33.68 114.96 31.6 119.44C29.52 124 26.92 127.44 23.8 129.76C20.68 132.08 17.52 133.24 14.32 133.24ZM24.4 45.28C22.8 45.28 21.48 44.96 20.44 44.32C19.48 43.6 19 42.56 19 41.2C19 39.76 19.56 38.6 20.68 37.72C21.88 36.76 23.28 36.24 24.88 36.16C25.84 36.16 26.68 36.6 27.4 37.48C28.12 38.36 28.52 39.24 28.6 40.12C28.6 41.24 28.16 42.4 27.28 43.6C26.4 44.72 25.44 45.28 24.4 45.28ZM71.5825 91.36C70.8625 91.36 70.1425 90.68 69.4225 89.32C68.1425 86.84 67.3425 84.6 67.0225 82.6C66.7825 80.52 66.2625 78.48 65.4625 76.48C64.1825 78.48 62.4625 80.4 60.3025 82.24C58.2225 84.08 56.0225 85 53.7025 85C49.5425 85 46.3025 83.72 43.9825 81.16C41.7425 78.52 40.6225 75.28 40.6225 71.44C40.6225 69.12 40.8225 66.48 41.2225 63.52C41.6225 60.56 42.4225 57.72 43.6225 55C44.9025 52.28 46.7025 50.04 49.0225 48.28C51.4225 46.44 54.5825 45.52 58.5025 45.52C61.3025 45.52 63.8625 46.04 66.1825 47.08C68.5025 48.12 69.6625 50.24 69.6625 53.44C69.6625 54 69.5025 54.76 69.1825 55.72C68.9425 56.6 68.5025 57.4 67.8625 58.12H67.9825C68.3825 59.16 68.6625 60.24 68.8225 61.36C69.0625 62.48 69.1825 63.6 69.1825 64.72C69.1825 66.88 68.7425 69.28 67.8625 71.92C68.4225 74.64 69.1425 77.4 70.0225 80.2C70.9025 82.92 71.8625 85.56 72.9025 88.12C73.0625 88.52 73.0225 89.16 72.7825 90.04C72.6225 90.92 72.2225 91.36 71.5825 91.36ZM54.9025 80.8C56.9825 80.8 58.7825 80.04 60.3025 78.52C61.9025 77 63.0225 75.52 63.6625 74.08C63.8225 73.84 63.9025 73.28 63.9025 72.4C63.9025 71.6 63.8225 70.76 63.6625 69.88C63.5025 69 63.3825 68.32 63.3025 67.84C63.1425 66.96 62.9425 66.08 62.7025 65.2C62.5425 64.32 62.4625 63.4 62.4625 62.44C62.4625 60.84 62.6625 59.56 63.0625 58.6C62.9025 58.28 62.7425 57.96 62.5825 57.64C62.4225 57.32 62.1425 56.96 61.7425 56.56C61.6625 56.48 61.6225 56.32 61.6225 56.08C61.6225 55.68 61.8225 55.4 62.2225 55.24C62.7025 55 63.1025 55.08 63.4225 55.48H63.3025C63.7025 56.04 63.9425 56.4 64.0225 56.56C64.1825 56.64 64.5025 56.72 64.9825 56.8C65.3025 56.64 65.5825 56.56 65.8225 56.56C66.1425 56.24 66.4625 55.8 66.7825 55.24C67.1025 54.68 67.2625 54.24 67.2625 53.92C67.2625 51.36 66.5025 49.68 64.9825 48.88C63.4625 48.08 61.6625 47.68 59.5825 47.68C56.9425 47.68 54.6225 48.6 52.6225 50.44C50.7025 52.2 49.1825 54.52 48.0625 57.4C47.0225 60.28 46.5025 63.32 46.5025 66.52C46.5025 68.52 46.7425 70.64 47.2225 72.88C47.7025 75.04 48.5425 76.92 49.7425 78.52C51.0225 80.04 52.7425 80.8 54.9025 80.8ZM92.2525 99.64C90.9725 99.64 89.7725 98.96 88.6525 97.6C87.5325 96.24 86.4925 94.6 85.5325 92.68C84.6525 90.84 83.8925 89.08 83.2525 87.4C82.6925 85.64 82.3325 84.4 82.1725 83.68C81.9325 82.08 81.6525 80.24 81.3325 78.16C81.0125 76 80.7325 73.8 80.4925 71.56C80.0125 72.52 79.5325 73.52 79.0525 74.56C78.5725 75.52 78.1325 76.56 77.7325 77.68C77.6525 78.08 77.3725 78.28 76.8925 78.28C76.4925 78.28 76.1325 78.12 75.8125 77.8C75.5725 77.48 75.5325 77.12 75.6925 76.72C76.3325 75.12 77.0125 73.56 77.7325 72.04C78.4525 70.44 79.1725 68.88 79.8925 67.36C79.8125 66 79.7325 64.76 79.6525 63.64C79.6525 62.44 79.6525 61.36 79.6525 60.4C79.7325 55.12 80.0525 49.6 80.6125 43.84C81.2525 38 81.7325 32.48 82.0525 27.28C82.4525 23.12 83.0125 19.32 83.7325 15.88C84.4525 12.36 85.5325 8.68 86.9725 4.84C88.0925 1.88 89.7725 0.399998 92.0125 0.399998C93.3725 0.399998 94.4925 1.12 95.3725 2.56C96.3325 4 97.0925 5.76 97.6525 7.83999C98.2125 9.84 98.6125 11.8 98.8525 13.72C99.0925 15.64 99.2125 17.08 99.2125 18.04C99.2125 25 98.1725 31.88 96.0925 38.68C94.0125 45.48 91.3725 51.72 88.1725 57.4L85.7725 61.6C85.7725 63.6 85.8925 66.04 86.1325 68.92C86.3725 71.8 86.6925 74.8 87.0925 77.92C87.4925 80.96 87.9725 83.8 88.5325 86.44C89.1725 89.08 89.8925 91.2 90.6925 92.8C90.8525 93.12 90.9725 93.48 91.0525 93.88C91.2125 94.36 91.4525 94.8 91.7725 95.2C91.9325 95.44 92.0125 95.68 92.0125 95.92C92.0125 96.16 92.0525 96.28 92.1325 96.28C93.5725 96.28 94.7325 95.68 95.6125 94.48C96.4925 93.28 97.1725 91.76 97.6525 89.92C98.1325 88.16 98.4525 86.44 98.6125 84.76C98.8525 83.08 98.9725 81.76 98.9725 80.8C98.9725 80 99.3725 79.6 100.173 79.6C100.973 79.6 101.413 80 101.493 80.8C101.493 82 101.333 83.64 101.013 85.72C100.693 87.8 100.173 89.88 99.4525 91.96C98.7325 94.12 97.7725 95.92 96.5725 97.36C95.4525 98.88 94.0125 99.64 92.2525 99.64ZM85.7725 56.92L86.0125 56.32C89.0525 50.64 91.5725 44.44 93.5725 37.72C95.6525 31 96.6925 24.28 96.6925 17.56C96.6925 16.52 96.5725 15.04 96.3325 13.12C96.0925 11.2 95.6525 9.44 95.0125 7.83999C94.3725 6.24 93.4125 5.44 92.1325 5.44C92.0525 5.44 92.0125 5.48 92.0125 5.56C92.0125 5.71999 92.0525 5.91999 92.1325 6.16C92.2125 6.4 92.2125 6.64 92.1325 6.87999C91.8925 7.68 91.6925 8.48 91.5325 9.28C91.3725 10.08 91.2125 10.68 91.0525 11.08C90.0125 14.04 89.2925 16.72 88.8925 19.12C88.5725 21.52 88.2925 24.36 88.0525 27.64C87.7325 32.28 87.2925 37.16 86.7325 42.28C86.2525 47.32 85.9325 52.2 85.7725 56.92ZM115.402 87.28C111.242 87.2 107.922 85.76 105.442 82.96C103.042 80.16 101.402 77 100.522 73.48L100.402 73C100.402 69.72 100.922 66.48 101.962 63.28C103.082 60 104.762 57.08 107.002 54.52C109.242 51.96 112.042 50.2 115.402 49.24C116.282 49.08 117.042 49 117.682 49C118.402 48.92 119.162 48.88 119.962 48.88C121.242 48.88 122.442 49.44 123.562 50.56C124.762 51.6 125.722 52.84 126.442 54.28C127.162 55.64 127.522 56.84 127.522 57.88C127.522 59.4 127.162 60.96 126.442 62.56C125.802 64.08 124.842 65.4 123.562 66.52C122.362 67.56 120.922 68.12 119.242 68.2C118.442 68.2 117.242 67.92 115.642 67.36C114.042 66.72 112.442 66 110.842 65.2C109.242 64.32 108.082 63.6 107.362 63.04C106.962 64.08 106.642 65.16 106.402 66.28C106.162 67.4 105.962 68.52 105.802 69.64V70.24C105.802 70.56 105.802 70.92 105.802 71.32C105.882 71.72 105.962 72.12 106.042 72.52C106.682 75.32 107.762 77.84 109.282 80.08C110.802 82.32 112.682 83.44 114.922 83.44C115.962 83.44 117.162 83.08 118.522 82.36C119.962 81.64 121.282 80.76 122.482 79.72C123.682 78.6 124.442 77.6 124.762 76.72C125.402 75.12 126.082 74.32 126.802 74.32C127.282 74.32 127.522 74.68 127.522 75.4C127.522 75.8 127.402 76.36 127.162 77.08C126.202 79.56 124.682 81.88 122.602 84.04C120.522 86.2 118.122 87.28 115.402 87.28ZM119.242 64.84C120.922 64.84 122.122 64.08 122.842 62.56C123.642 60.96 124.042 59.4 124.042 57.88C124.042 57.16 123.762 56.4 123.202 55.6C122.642 54.72 122.042 53.96 121.402 53.32C120.762 52.68 120.282 52.36 119.962 52.36C118.762 52.36 117.602 52.64 116.482 53.2C114.562 53.76 112.922 54.72 111.562 56.08C110.202 57.44 109.122 59 108.322 60.76C108.402 60.76 108.522 60.84 108.682 61C109.082 61.32 110.002 61.8 111.442 62.44C112.962 63.08 114.482 63.64 116.002 64.12C117.602 64.6 118.682 64.84 119.242 64.84ZM148.511 91.24C148.031 91.24 147.391 90.92 146.591 90.28C145.791 89.72 145.071 89.08 144.431 88.36C143.791 87.72 143.431 87.36 143.351 87.28C142.951 86.64 142.591 85.68 142.271 84.4C141.951 83.04 141.791 81.88 141.791 80.92C141.791 80.04 142.151 79.12 142.871 78.16C143.671 77.12 144.191 76.32 144.431 75.76C144.591 75.28 144.951 75.04 145.511 75.04C145.911 75.04 146.231 75.2 146.471 75.52C146.791 75.76 146.871 76.12 146.711 76.6C146.631 76.92 146.551 77.32 146.471 77.8C146.471 78.28 146.391 78.72 146.231 79.12C146.151 79.28 146.111 79.48 146.111 79.72C146.111 79.96 146.151 80.16 146.231 80.32C146.311 80.48 146.351 80.64 146.351 80.8C146.351 81.36 146.631 82 147.191 82.72C147.831 83.36 148.311 83.88 148.631 84.28C148.631 84.28 148.591 84.4 148.511 84.64C148.431 84.88 148.431 85 148.511 85C148.911 85 149.311 84.84 149.711 84.52C150.111 84.2 150.471 83.88 150.791 83.56C152.951 80.92 154.831 77.68 156.431 73.84C158.031 69.92 158.831 66.16 158.831 62.56V59.8C158.831 59.16 158.791 58.56 158.711 58C158.711 57.36 158.631 56.8 158.471 56.32C158.231 55.68 157.791 54.88 157.151 53.92C156.591 52.96 155.911 52.12 155.111 51.4C154.391 50.6 153.671 50.2 152.951 50.2C150.711 50.2 148.391 50.84 145.991 52.12C143.591 53.4 141.511 55 139.751 56.92C140.151 59.8 140.471 62.72 140.711 65.68C141.031 68.56 141.231 71.48 141.311 74.44C141.311 75.32 141.151 76.56 140.831 78.16C140.591 79.68 140.271 81.2 139.871 82.72C139.471 84.24 139.071 85.48 138.671 86.44C137.791 88.52 136.471 89.56 134.711 89.56C134.231 89.56 133.671 89.44 133.031 89.2C132.471 88.96 132.191 88.6 132.191 88.12C132.191 87.72 132.311 87.4 132.551 87.16C132.871 86.84 133.231 86.76 133.631 86.92C134.511 87.24 135.191 86.88 135.671 85.84C136.231 84.72 136.631 83.36 136.871 81.76C137.191 80.08 137.391 78.52 137.471 77.08C137.631 75.64 137.711 74.72 137.711 74.32C137.711 72.16 137.551 70.12 137.231 68.2C136.991 66.2 136.751 64.2 136.511 62.2C135.791 63.72 135.431 65.32 135.431 67C135.431 68.04 134.911 68.56 133.871 68.56C132.911 68.56 132.431 68.08 132.431 67.12V67C132.431 63.56 133.551 60.24 135.791 57.04C135.231 52.88 134.631 49.04 133.991 45.52C133.431 42 133.071 37.96 132.911 33.4C132.911 32.04 132.951 30.88 133.031 29.92C133.191 28.88 133.271 27.72 133.271 26.44C133.271 25.48 133.311 24.64 133.391 23.92C133.471 23.2 133.551 22.44 133.631 21.64C133.711 21 134.111 20.68 134.831 20.68C135.231 20.68 135.551 20.8 135.791 21.04C136.111 21.28 136.231 21.6 136.151 22C136.071 22.24 136.031 22.48 136.031 22.72C136.031 22.96 136.031 23.2 136.031 23.44C136.031 23.84 136.031 24.28 136.031 24.76C136.111 25.24 136.151 25.76 136.151 26.32C136.151 27.6 136.271 28.76 136.511 29.8C136.751 30.76 136.911 31.92 136.991 33.28C137.151 36.56 137.391 39.84 137.711 43.12C138.111 46.32 138.551 49.56 139.031 52.84C141.031 50.76 143.231 49.08 145.631 47.8C148.031 46.52 150.391 45.84 152.711 45.76C153.991 45.76 155.471 46.2 157.151 47.08C158.911 47.88 160.511 48.88 161.951 50.08C163.391 51.28 164.311 52.4 164.711 53.44C165.351 54.96 165.671 56.44 165.671 57.88C165.751 59.32 165.791 60.84 165.791 62.44C165.791 67 164.791 71.64 162.791 76.36C160.871 81 158.631 84.92 156.071 88.12C155.271 89.16 154.191 89.92 152.831 90.4C151.471 90.96 150.031 91.24 148.511 91.24ZM182.271 96.04C180.911 96.04 179.471 95.44 177.951 94.24C176.431 93.12 175.151 91.72 174.111 90.04C173.151 88.44 172.671 86.88 172.671 85.36C172.671 83.44 172.751 81.64 172.911 79.96C173.071 78.2 173.311 76.44 173.631 74.68C173.871 73.16 174.031 71.68 174.111 70.24C174.271 68.8 174.511 67.2 174.831 65.44C174.991 64.56 174.991 63.68 174.831 62.8C174.671 61.92 174.591 60.96 174.591 59.92C174.591 59.44 174.591 59.04 174.591 58.72C174.671 58.4 174.711 58.08 174.711 57.76C174.711 57.36 174.671 56.96 174.591 56.56C174.511 56.16 174.271 55.6 173.871 54.88C173.391 54.4 173.151 53.76 173.151 52.96C173.151 52.24 173.391 51.56 173.871 50.92C174.351 50.28 175.071 49.96 176.031 49.96C176.111 49.96 176.111 49.92 176.031 49.84C176.031 49.76 176.071 49.72 176.151 49.72C178.311 49.4 179.751 50.08 180.471 51.76C181.191 53.44 181.551 55.36 181.551 57.52C181.551 59.28 181.431 61 181.191 62.68C180.951 64.28 180.751 65.52 180.591 66.4C180.351 68.16 179.991 69.76 179.511 71.2C179.031 72.56 178.671 74.04 178.431 75.64C178.191 77.24 177.951 78.84 177.711 80.44C177.551 82.04 177.471 83.68 177.471 85.36C177.471 86.32 177.671 87.44 178.071 88.72C178.471 90.08 179.031 91.24 179.751 92.2C180.471 93.24 181.311 93.76 182.271 93.76C182.831 93.76 183.471 93.32 184.191 92.44C184.991 91.64 185.751 90.84 186.471 90.04C187.271 89.24 187.871 88.84 188.271 88.84C188.591 88.84 188.751 89.24 188.751 90.04V90.16C188.751 90.88 188.351 91.68 187.551 92.56C186.831 93.52 185.951 94.32 184.911 94.96C183.951 95.68 183.071 96.04 182.271 96.04ZM177.711 42.16C176.111 42.16 174.791 41.84 173.751 41.2C172.791 40.48 172.311 39.44 172.311 38.08C172.311 36.64 172.871 35.48 173.991 34.6C175.191 33.64 176.591 33.12 178.191 33.04C179.151 33.04 179.991 33.48 180.711 34.36C181.431 35.24 181.831 36.12 181.911 37C181.911 38.12 181.471 39.28 180.591 40.48C179.711 41.6 178.751 42.16 177.711 42.16Z" fill="black"/>
</svg>
